<?xml version="1.0" encoding="UTF-8"?>
<!DOCTYPE svg PUBLIC "-//W3C//DTD SVG 1.1//EN" "http://www.w3.org/Graphics/SVG/1.1/DTD/svg11.dtd">
<svg xmlns="http://www.w3.org/2000/svg" version="1.1" width="1200px" height="1090px" style="shape-rendering:geometricPrecision; text-rendering:geometricPrecision; image-rendering:optimizeQuality; fill-rule:evenodd; clip-rule:evenodd" xmlns:xlink="http://www.w3.org/1999/xlink">
<g><path style="opacity:0.974" fill="#b6b6b6" d="M 510.5,-0.5 C 536.5,-0.5 562.5,-0.5 588.5,-0.5C 749.59,14.1192 881.09,83.7859 983,208.5C 1082.51,339.626 1117.84,486.626 1089,649.5C 1058.75,790.304 985.916,903.137 870.5,988C 785.741,1047.09 691.741,1080.92 588.5,1089.5C 562.5,1089.5 536.5,1089.5 510.5,1089.5C 338.746,1073.73 201.579,997.062 99,859.5C 40.7616,776.293 7.59495,683.96 -0.5,582.5C -0.5,557.167 -0.5,531.833 -0.5,506.5C 13.4654,351.057 79.7987,223.224 198.5,123C 289.518,50.0247 393.518,8.85807 510.5,-0.5 Z M 534.5,66.5 C 669.666,64.9803 786.333,109.814 884.5,201C 989.217,305.095 1037.72,431.262 1030,579.5C 1016.74,718.551 956.24,831.718 848.5,919C 732.884,1006.32 603.218,1037.99 459.5,1014C 316.369,984.564 206.869,907.731 131,783.5C 58.3111,652.258 47.3111,515.925 98,374.5C 154.999,235.165 254.499,140.665 396.5,91C 441.533,76.6626 487.533,68.4959 534.5,66.5 Z"/></g>
<g><path style="opacity:0.997" fill="#ff3a1d" d="M 460.5,149.5 C 460.5,198.5 460.5,247.5 460.5,296.5C 453.246,297.697 455.913,297.697 468.5,296.5C 467.737,297.268 466.737,297.768 465.5,298C 453.691,298.931 442.024,298.098 430.5,295.5C 426.458,293.763 422.124,292.763 417.5,292.5C 415.189,290.932 412.522,290.098 409.5,290C 410.164,269.238 410.497,248.405 410.5,227.5C 410.662,206.354 410.162,185.354 409,164.5C 401.773,170.394 395.106,177.061 389,184.5C 387.92,186.996 386.586,189.33 385,191.5C 374.667,203.167 364.333,214.833 354,226.5C 352.89,228.037 351.39,228.703 349.5,228.5C 371.868,201.953 394.868,175.787 418.5,150C 432.496,149.5 446.496,149.333 460.5,149.5 Z"/></g>
<g><path style="opacity:0.997" fill="#ff371a" d="M 460.5,149.5 C 475.167,149.5 489.833,149.5 504.5,149.5C 505.158,194.552 504.492,239.385 502.5,284C 503.793,284.49 505.127,284.657 506.5,284.5C 504.5,285.5 502.5,286.5 500.5,287.5C 496.838,287.723 493.505,288.723 490.5,290.5C 487.654,290.552 485.32,291.552 483.5,293.5C 478.532,294.659 473.532,295.659 468.5,296.5C 455.913,297.697 453.246,297.697 460.5,296.5C 460.5,247.5 460.5,198.5 460.5,149.5 Z"/></g>
<g><path style="opacity:0.996" fill="#ff3316" d="M 504.5,149.5 C 531.833,149.5 559.167,149.5 586.5,149.5C 586.83,194.072 586.497,238.572 585.5,283C 586.942,283.377 587.942,284.21 588.5,285.5C 586.597,285.204 584.93,284.537 583.5,283.5C 581.485,282.076 579.152,281.41 576.5,281.5C 569.73,279.146 562.73,277.813 555.5,277.5C 552.183,276.835 548.683,276.501 545,276.5C 539.579,276.326 534.413,276.993 529.5,278.5C 521.845,280.663 514.179,282.663 506.5,284.5C 505.127,284.657 503.793,284.49 502.5,284C 504.492,239.385 505.158,194.552 504.5,149.5 Z"/></g>
<g><path style="opacity:0.997" fill="#ff2e10" d="M 586.5,149.5 C 610.833,149.5 635.167,149.5 659.5,149.5C 660.833,197.833 660.833,246.167 659.5,294.5C 657.833,295.167 656.167,295.833 654.5,296.5C 641.499,299.695 628.832,299.029 616.5,294.5C 614.485,293.076 612.152,292.41 609.5,292.5C 602.543,290.011 595.543,287.678 588.5,285.5C 587.942,284.21 586.942,283.377 585.5,283C 586.497,238.572 586.83,194.072 586.5,149.5 Z"/></g>
<g><path style="opacity:0.996" fill="#ff290b" d="M 659.5,149.5 C 664.844,149.334 670.177,149.501 675.5,150C 681.398,156.391 687.065,162.891 692.5,169.5C 693.072,171.255 693.906,172.922 695,174.5C 711.433,191.931 726.766,210.265 741,229.5C 742.677,230.516 744.343,231.516 746,232.5C 747.856,231.264 749.689,231.264 751.5,232.5C 752.833,241.167 752.833,249.833 751.5,258.5C 748.02,260.166 744.686,261.999 741.5,264C 737.348,269.119 732.848,273.952 728,278.5C 726.441,280.217 725.608,282.217 725.5,284.5C 723.585,284.216 721.919,284.549 720.5,285.5C 714.301,286.089 708.301,287.089 702.5,288.5C 690.725,291.327 678.725,293.327 666.5,294.5C 664.167,294.5 661.833,294.5 659.5,294.5C 660.833,246.167 660.833,197.833 659.5,149.5 Z"/></g>
<g><path style="opacity:1" fill="#ff3e21" d="M 417.5,292.5 C 416.167,292.5 414.833,292.5 413.5,292.5C 398.33,289.637 382.996,286.971 367.5,284.5C 367.071,280.976 365.571,277.976 363,275.5C 350.87,263.501 336.703,255.167 320.5,250.5C 322.92,250.292 325.253,250.626 327.5,251.5C 328.812,244.276 328.812,237.109 327.5,230C 308.087,225.811 288.754,227.144 269.5,234C 265.265,236.95 260.931,239.783 256.5,242.5C 269.175,243.238 281.842,244.072 294.5,245C 298.43,245.242 302.097,246.075 305.5,247.5C 288.174,245.404 270.841,244.07 253.5,243.5C 258.237,238.953 263.57,235.12 269.5,232C 282.162,227.768 295.162,225.268 308.5,224.5C 321.503,225.669 334.336,227.669 347,230.5C 347.417,229.244 348.25,228.577 349.5,228.5C 351.39,228.703 352.89,228.037 354,226.5C 364.333,214.833 374.667,203.167 385,191.5C 386.586,189.33 387.92,186.996 389,184.5C 395.106,177.061 401.773,170.394 409,164.5C 410.162,185.354 410.662,206.354 410.5,227.5C 410.497,248.405 410.164,269.238 409.5,290C 412.522,290.098 415.189,290.932 417.5,292.5 Z"/></g>
<g><path style="opacity:0.998" fill="#ff2000" d="M 692.5,169.5 C 710.032,189.355 727.699,209.188 745.5,229C 758.803,227.576 772.137,226.076 785.5,224.5C 799.579,225.402 813.246,228.235 826.5,233C 829.167,234.667 831.833,236.333 834.5,238C 854.695,257.862 874.529,278.028 894,298.5C 894.667,300.167 894.667,301.833 894,303.5C 888.322,318.702 882.155,333.702 875.5,348.5C 883.099,369.462 890.599,390.462 898,411.5C 899.325,415.428 899.658,419.428 899,423.5C 870.316,532.905 841.65,642.238 813,751.5C 807.833,770.66 800.5,788.993 791,806.5C 778.874,823.626 764.374,838.46 747.5,851C 695.668,887.748 643.001,923.248 589.5,957.5C 589.351,956.448 589.517,955.448 590,954.5C 590.333,954.833 590.667,955.167 591,955.5C 591.333,895.833 591.667,836.167 592,776.5C 592.717,775.956 593.217,775.289 593.5,774.5C 612.36,758.816 631.693,743.649 651.5,729C 653.706,726.963 655.706,724.797 657.5,722.5C 658.152,721.551 658.486,720.385 658.5,719C 658.693,716.992 658.026,715.492 656.5,714.5C 655.29,714.068 654.29,713.401 653.5,712.5C 653.027,711.094 652.027,710.427 650.5,710.5C 630.854,701.011 611.521,691.011 592.5,680.5C 591.851,673.91 591.518,667.244 591.5,660.5C 591.504,653.796 592.17,647.463 593.5,641.5C 599.984,646.911 606.984,651.578 614.5,655.5C 615.899,656.89 617.566,657.89 619.5,658.5C 625.182,662.008 631.182,665.008 637.5,667.5C 637.973,668.906 638.973,669.573 640.5,669.5C 648.32,673.278 656.32,676.778 664.5,680C 668.821,680.499 673.154,680.666 677.5,680.5C 681.358,680.23 684.691,678.897 687.5,676.5C 702.771,666.974 714.105,653.974 721.5,637.5C 723.876,633.607 724.876,629.273 724.5,624.5C 725.863,617.229 725.529,609.896 723.5,602.5C 722.806,597.085 721.14,592.085 718.5,587.5C 717.354,583.217 715.687,579.217 713.5,575.5C 712.871,572.603 711.871,569.936 710.5,567.5C 710.294,563.102 710.627,558.768 711.5,554.5C 712.906,554.027 713.573,553.027 713.5,551.5C 714.072,549.745 714.906,548.078 716,546.5C 748.7,512.135 781.034,477.468 813,442.5C 820.439,425.658 818.606,409.991 807.5,395.5C 807.573,393.973 806.906,392.973 805.5,392.5C 799.812,381.775 793.146,371.775 785.5,362.5C 785.573,360.973 784.906,359.973 783.5,359.5C 765.365,333.558 746.032,308.558 725.5,284.5C 725.608,282.217 726.441,280.217 728,278.5C 732.848,273.952 737.348,269.119 741.5,264C 744.686,261.999 748.02,260.166 751.5,258.5C 752.833,249.833 752.833,241.167 751.5,232.5C 749.689,231.264 747.856,231.264 746,232.5C 744.343,231.516 742.677,230.516 741,229.5C 726.766,210.265 711.433,191.931 695,174.5C 693.906,172.922 693.072,171.255 692.5,169.5 Z"/></g>
<g><path style="opacity:0.999" fill="#ff4327" d="M 320.5,250.5 C 315.442,249.651 310.442,248.651 305.5,247.5C 302.097,246.075 298.43,245.242 294.5,245C 281.842,244.072 269.175,243.238 256.5,242.5C 260.931,239.783 265.265,236.95 269.5,234C 288.754,227.144 308.087,225.811 327.5,230C 328.812,237.109 328.812,244.276 327.5,251.5C 325.253,250.626 322.92,250.292 320.5,250.5 Z"/></g>
<g><path style="opacity:0.99" fill="#ff5500" d="M 253.5,243.5 C 270.841,244.07 288.174,245.404 305.5,247.5C 310.442,248.651 315.442,249.651 320.5,250.5C 336.703,255.167 350.87,263.501 363,275.5C 365.571,277.976 367.071,280.976 367.5,284.5C 360.426,292.9 353.76,301.567 347.5,310.5C 345.413,311.585 344.08,313.251 343.5,315.5C 341.738,316.262 340.738,317.596 340.5,319.5C 338.413,320.585 337.08,322.251 336.5,324.5C 334.016,326.8 332.016,329.467 330.5,332.5C 328.413,333.585 327.08,335.251 326.5,337.5C 309.199,358.746 293.866,381.413 280.5,405.5C 278.62,407.755 277.62,410.422 277.5,413.5C 276.883,413.611 276.383,413.944 276,414.5C 274.135,426.097 276.468,436.764 283,446.5C 313.301,479.136 343.968,511.469 375,543.5C 376.723,545.717 378.223,548.05 379.5,550.5C 379.427,552.027 380.094,553.027 381.5,553.5C 382.961,560.481 382.628,567.481 380.5,574.5C 378.935,576.509 377.935,578.843 377.5,581.5C 375.99,584.683 374.657,588.016 373.5,591.5C 371.723,594.505 370.723,597.838 370.5,601.5C 366.501,611.841 366.501,622.175 370.5,632.5C 377.783,653.115 391.117,668.449 410.5,678.5C 410.918,679.222 411.584,679.722 412.5,680C 417.02,680.814 421.354,680.647 425.5,679.5C 431.949,677.906 438.282,675.906 444.5,673.5C 446.967,673.245 448.967,672.245 450.5,670.5C 455.311,667.93 460.311,665.597 465.5,663.5C 467.848,663.408 469.514,662.408 470.5,660.5C 478.325,656.088 485.992,651.421 493.5,646.5C 493.217,647.289 492.717,647.956 492,648.5C 491.5,660.162 491.333,671.829 491.5,683.5C 492.5,683.5 493.5,683.5 494.5,683.5C 475.835,693.436 457.168,703.269 438.5,713C 434.99,714.907 433.824,717.74 435,721.5C 436.812,724.28 438.979,726.78 441.5,729C 459.083,742.278 476.417,755.778 493.5,769.5C 491.504,828.157 490.837,887.157 491.5,946.5C 490.167,946.5 488.833,946.5 487.5,946.5C 440.372,915.763 393.706,884.263 347.5,852C 324.655,836.826 307.155,816.992 295,792.5C 291.043,782.924 287.376,773.257 284,763.5C 253.566,648.63 223.399,533.797 193.5,419C 201.412,395.541 209.412,372.041 217.5,348.5C 212.872,335.25 207.705,322.25 202,309.5C 200.266,305.983 199.599,302.316 200,298.5C 217.728,279.94 235.561,261.607 253.5,243.5 Z"/></g>
<g><path style="opacity:1" fill="#ffc8bd" d="M 555.5,277.5 C 546.815,277.464 538.149,277.797 529.5,278.5C 534.413,276.993 539.579,276.326 545,276.5C 548.683,276.501 552.183,276.835 555.5,277.5 Z"/></g>
<g><path style="opacity:1" fill="#fffefd" d="M 555.5,277.5 C 562.73,277.813 569.73,279.146 576.5,281.5C 578.515,282.924 580.848,283.59 583.5,283.5C 584.93,284.537 586.597,285.204 588.5,285.5C 595.543,287.678 602.543,290.011 609.5,292.5C 611.515,293.924 613.848,294.59 616.5,294.5C 628.832,299.029 641.499,299.695 654.5,296.5C 658.733,296.461 662.733,295.795 666.5,294.5C 678.725,293.327 690.725,291.327 702.5,288.5C 708.835,288.762 714.835,287.762 720.5,285.5C 721.919,284.549 723.585,284.216 725.5,284.5C 746.032,308.558 765.365,333.558 783.5,359.5C 783.427,361.027 784.094,362.027 785.5,362.5C 793.146,371.775 799.812,381.775 805.5,392.5C 805.427,394.027 806.094,395.027 807.5,395.5C 818.606,409.991 820.439,425.658 813,442.5C 781.034,477.468 748.7,512.135 716,546.5C 714.906,548.078 714.072,549.745 713.5,551.5C 712.094,551.973 711.427,552.973 711.5,554.5C 710.627,558.768 710.294,563.102 710.5,567.5C 710.345,570.716 711.345,573.383 713.5,575.5C 715.687,579.217 717.354,583.217 718.5,587.5C 719.589,592.767 721.256,597.767 723.5,602.5C 725.529,609.896 725.863,617.229 724.5,624.5C 723.373,628.683 722.373,633.017 721.5,637.5C 714.105,653.974 702.771,666.974 687.5,676.5C 683.851,677.267 680.518,678.6 677.5,680.5C 673.154,680.666 668.821,680.499 664.5,680C 656.32,676.778 648.32,673.278 640.5,669.5C 640.027,668.094 639.027,667.427 637.5,667.5C 631.182,665.008 625.182,662.008 619.5,658.5C 618.656,656.241 616.989,655.241 614.5,655.5C 606.984,651.578 599.984,646.911 593.5,641.5C 583.927,633.431 574.76,624.765 566,615.5C 562.391,611.277 559.557,606.61 557.5,601.5C 557.368,598.43 557.701,595.43 558.5,592.5C 559.124,590.246 560.457,588.579 562.5,587.5C 565.089,586.581 567.089,584.914 568.5,582.5C 576.606,575.394 585.272,569.06 594.5,563.5C 595.391,562.89 596.391,562.557 597.5,562.5C 599.027,562.573 600.027,561.906 600.5,560.5C 612.595,552.923 624.595,545.09 636.5,537C 640.712,534.289 644.046,530.789 646.5,526.5C 647.645,522.689 647.812,518.689 647,514.5C 646.626,512.509 645.793,510.842 644.5,509.5C 641.085,502.335 637.418,495.335 633.5,488.5C 633.573,486.973 632.906,485.973 631.5,485.5C 628.767,479.702 625.767,474.035 622.5,468.5C 622.573,466.973 621.906,465.973 620.5,465.5C 616.986,458.137 614.319,450.47 612.5,442.5C 612.467,438.131 612.8,433.798 613.5,429.5C 617.297,423.034 622.63,418.367 629.5,415.5C 631.848,415.408 633.514,414.408 634.5,412.5C 635.833,411.833 637.167,411.167 638.5,410.5C 642.358,410.23 645.691,408.897 648.5,406.5C 653.079,403.863 658.079,402.196 663.5,401.5C 669.607,399.937 675.274,397.604 680.5,394.5C 681.93,393.463 683.597,392.796 685.5,392.5C 687.527,392.662 689.527,392.495 691.5,392C 698.728,389.101 705.728,385.935 712.5,382.5C 714.302,381.542 716.302,380.875 718.5,380.5C 721.947,379.917 724.947,378.584 727.5,376.5C 729.698,376.88 731.365,376.213 732.5,374.5C 734.87,374.017 735.537,372.851 734.5,371C 729.535,369.904 724.535,369.071 719.5,368.5C 718.391,367.71 717.058,367.21 715.5,367C 710.177,366.501 704.844,366.334 699.5,366.5C 698.833,366.5 698.167,366.5 697.5,366.5C 692.731,365.111 687.731,364.444 682.5,364.5C 673.167,364.5 663.833,364.5 654.5,364.5C 650.511,364.116 646.845,364.783 643.5,366.5C 643.167,366.5 642.833,366.5 642.5,366.5C 639.848,366.41 637.515,367.076 635.5,368.5C 630.644,369.544 625.978,370.877 621.5,372.5C 618.848,372.41 616.515,373.076 614.5,374.5C 613.167,374.833 611.833,375.167 610.5,375.5C 606.085,375.861 602.085,377.194 598.5,379.5C 584.578,382.329 579.578,390.662 583.5,404.5C 583.044,409.607 584.044,414.274 586.5,418.5C 587.501,423.84 588.501,429.173 589.5,434.5C 589.782,443.245 591.449,451.578 594.5,459.5C 596.379,468.773 598.046,478.107 599.5,487.5C 601.677,499.727 602.677,512.06 602.5,524.5C 601.031,528.308 598.365,530.641 594.5,531.5C 587.025,532.963 579.692,534.629 572.5,536.5C 566.963,537.087 561.63,538.087 556.5,539.5C 556.167,539.5 555.833,539.5 555.5,539.5C 547.483,539.499 539.483,539.166 531.5,538.5C 530.833,538.5 530.167,538.5 529.5,538.5C 527.485,537.076 525.152,536.41 522.5,536.5C 516.031,535.673 509.698,534.34 503.5,532.5C 501.485,531.076 499.152,530.41 496.5,530.5C 495.833,530.5 495.167,530.5 494.5,530.5C 492.62,528.074 491.287,525.408 490.5,522.5C 490.76,516.828 491.093,511.161 491.5,505.5C 491.44,499.705 492.107,494.039 493.5,488.5C 494.924,486.485 495.59,484.152 495.5,481.5C 495.5,480.833 495.5,480.167 495.5,479.5C 496.222,479.082 496.722,478.416 497,477.5C 497.497,474.854 497.664,472.187 497.5,469.5C 497.5,469.167 497.5,468.833 497.5,468.5C 499.956,464.274 500.956,459.607 500.5,454.5C 500.5,453.833 500.5,453.167 500.5,452.5C 502.237,448.458 503.237,444.124 503.5,439.5C 503.5,438.167 503.5,436.833 503.5,435.5C 504.924,433.485 505.59,431.152 505.5,428.5C 505.844,424.106 506.51,419.772 507.5,415.5C 508.222,415.082 508.722,414.416 509,413.5C 509.497,410.854 509.664,408.187 509.5,405.5C 509.5,405.167 509.5,404.833 509.5,404.5C 510.222,404.082 510.722,403.416 511,402.5C 511.814,397.98 511.647,393.646 510.5,389.5C 507.822,384.311 503.489,381.311 497.5,380.5C 494.691,378.103 491.358,376.77 487.5,376.5C 486.833,376.5 486.167,376.5 485.5,376.5C 482.746,375.054 479.746,374.054 476.5,373.5C 468.867,371.342 461.201,369.342 453.5,367.5C 453.082,366.778 452.416,366.278 451.5,366C 447.83,365.452 444.163,364.952 440.5,364.5C 428.833,364.5 417.167,364.5 405.5,364.5C 400.269,364.444 395.269,365.111 390.5,366.5C 387.236,367.324 383.902,367.658 380.5,367.5C 375.234,367.189 370.234,367.855 365.5,369.5C 363.139,369.674 360.806,370.007 358.5,370.5C 358.808,374.009 360.808,375.676 364.5,375.5C 367.709,377.934 371.376,379.601 375.5,380.5C 401.332,390.057 427.166,399.723 453,409.5C 458.888,412.528 464.722,415.695 470.5,419C 474.38,421.379 477.38,424.546 479.5,428.5C 480.275,433.797 480.608,439.13 480.5,444.5C 479.703,448.223 478.703,451.89 477.5,455.5C 468.138,473.184 458.805,490.85 449.5,508.5C 445.808,513.764 444.808,519.431 446.5,525.5C 451.001,532.167 456.668,537.667 463.5,542C 474.056,548.773 484.722,555.273 495.5,561.5C 504.158,567.164 512.825,572.83 521.5,578.5C 527.135,583.303 532.302,588.637 537,594.5C 537.667,596.833 537.667,599.167 537,601.5C 535.295,603.577 534.128,605.91 533.5,608.5C 531.413,609.585 530.08,611.251 529.5,613.5C 526.833,615.5 524.5,617.833 522.5,620.5C 512.808,629.195 503.141,637.862 493.5,646.5C 485.992,651.421 478.325,656.088 470.5,660.5C 468.326,660.75 466.659,661.75 465.5,663.5C 460.311,665.597 455.311,667.93 450.5,670.5C 448.033,670.755 446.033,671.755 444.5,673.5C 438.282,675.906 431.949,677.906 425.5,679.5C 420.463,679.587 415.463,679.254 410.5,678.5C 391.117,668.449 377.783,653.115 370.5,632.5C 369.277,622.174 369.277,611.841 370.5,601.5C 372.277,598.495 373.277,595.162 373.5,591.5C 374.657,588.016 375.99,584.683 377.5,581.5C 379.834,579.824 380.834,577.491 380.5,574.5C 382.628,567.481 382.961,560.481 381.5,553.5C 381.573,551.973 380.906,550.973 379.5,550.5C 378.223,548.05 376.723,545.717 375,543.5C 343.968,511.469 313.301,479.136 283,446.5C 276.468,436.764 274.135,426.097 276,414.5C 276.383,413.944 276.883,413.611 277.5,413.5C 279.38,411.245 280.38,408.578 280.5,405.5C 293.866,381.413 309.199,358.746 326.5,337.5C 328.587,336.415 329.92,334.749 330.5,332.5C 332.016,329.467 334.016,326.8 336.5,324.5C 338.587,323.415 339.92,321.749 340.5,319.5C 340.738,317.596 341.738,316.262 343.5,315.5C 345.587,314.415 346.92,312.749 347.5,310.5C 353.76,301.567 360.426,292.9 367.5,284.5C 382.996,286.971 398.33,289.637 413.5,292.5C 418.959,293.951 424.626,294.951 430.5,295.5C 442.024,298.098 453.691,298.931 465.5,298C 466.737,297.768 467.737,297.268 468.5,296.5C 473.532,295.659 478.532,294.659 483.5,293.5C 486.157,293.065 488.491,292.065 490.5,290.5C 494.162,290.277 497.495,289.277 500.5,287.5C 502.5,286.5 504.5,285.5 506.5,284.5C 514.179,282.663 521.845,280.663 529.5,278.5C 538.149,277.797 546.815,277.464 555.5,277.5 Z"/></g>
<g><path style="opacity:1" fill="#ff7b65" d="M 576.5,281.5 C 579.152,281.41 581.485,282.076 583.5,283.5C 580.848,283.59 578.515,282.924 576.5,281.5 Z"/></g>
<g><path style="opacity:1" fill="#ffcec7" d="M 720.5,285.5 C 714.835,287.762 708.835,288.762 702.5,288.5C 708.301,287.089 714.301,286.089 720.5,285.5 Z"/></g>
<g><path style="opacity:1" fill="#ffbcae" d="M 500.5,287.5 C 497.495,289.277 494.162,290.277 490.5,290.5C 493.505,288.723 496.838,287.723 500.5,287.5 Z"/></g>
<g><path style="opacity:1" fill="#ffbbab" d="M 490.5,290.5 C 488.491,292.065 486.157,293.065 483.5,293.5C 485.32,291.552 487.654,290.552 490.5,290.5 Z"/></g>
<g><path style="opacity:1" fill="#ff846a" d="M 413.5,292.5 C 414.833,292.5 416.167,292.5 417.5,292.5C 422.124,292.763 426.458,293.763 430.5,295.5C 424.626,294.951 418.959,293.951 413.5,292.5 Z"/></g>
<g><path style="opacity:1" fill="#ff6f58" d="M 609.5,292.5 C 612.152,292.41 614.485,293.076 616.5,294.5C 613.848,294.59 611.515,293.924 609.5,292.5 Z"/></g>
<g><path style="opacity:1" fill="#ff6850" d="M 659.5,294.5 C 661.833,294.5 664.167,294.5 666.5,294.5C 662.733,295.795 658.733,296.461 654.5,296.5C 656.167,295.833 657.833,295.167 659.5,294.5 Z"/></g>
<g><path style="opacity:1" fill="#ffc8ad" d="M 347.5,310.5 C 346.92,312.749 345.587,314.415 343.5,315.5C 344.08,313.251 345.413,311.585 347.5,310.5 Z"/></g>
<g><path style="opacity:1" fill="#ffcab0" d="M 340.5,319.5 C 339.92,321.749 338.587,323.415 336.5,324.5C 337.08,322.251 338.413,320.585 340.5,319.5 Z"/></g>
<g><path style="opacity:1" fill="#ffc4a6" d="M 330.5,332.5 C 329.92,334.749 328.587,336.415 326.5,337.5C 327.08,335.251 328.413,333.585 330.5,332.5 Z"/></g>
<g><path style="opacity:1" fill="#ffaea1" d="M 783.5,359.5 C 784.906,359.973 785.573,360.973 785.5,362.5C 784.094,362.027 783.427,361.027 783.5,359.5 Z"/></g>
<g><path style="opacity:1" fill="#ff8142" d="M 405.5,364.5 C 417.167,364.5 428.833,364.5 440.5,364.5C 440.5,364.833 440.5,365.167 440.5,365.5C 426.482,365.324 412.482,365.657 398.5,366.5C 400.833,365.833 403.167,365.167 405.5,364.5 Z"/></g>
<g><path style="opacity:1" fill="#ffb692" d="M 405.5,364.5 C 403.167,365.167 400.833,365.833 398.5,366.5C 395.833,366.5 393.167,366.5 390.5,366.5C 395.269,365.111 400.269,364.444 405.5,364.5 Z"/></g>
<g><path style="opacity:1" fill="#ff5604" d="M 440.5,365.5 C 444.814,366.275 449.147,366.941 453.5,367.5C 461.201,369.342 468.867,371.342 476.5,373.5C 479.008,375.554 482.008,376.554 485.5,376.5C 486.167,376.5 486.833,376.5 487.5,376.5C 490.079,378.025 492.746,379.359 495.5,380.5C 494.167,380.5 492.833,380.5 491.5,380.5C 491.333,417.835 491.5,455.168 492,492.5C 492.21,490.942 492.71,489.609 493.5,488.5C 492.107,494.039 491.44,499.705 491.5,505.5C 489.45,511.09 489.117,516.756 490.5,522.5C 491.287,525.408 492.62,528.074 494.5,530.5C 493.504,530.586 492.671,530.252 492,529.5C 491.5,539.161 491.334,548.828 491.5,558.5C 493.619,558.468 494.952,559.468 495.5,561.5C 484.722,555.273 474.056,548.773 463.5,542C 456.668,537.667 451.001,532.167 446.5,525.5C 446.463,519.623 447.463,513.956 449.5,508.5C 458.805,490.85 468.138,473.184 477.5,455.5C 479.99,452.374 481.323,448.708 481.5,444.5C 481.666,439.821 481.499,435.155 481,430.5C 480.722,429.584 480.222,428.918 479.5,428.5C 477.38,424.546 474.38,421.379 470.5,419C 464.722,415.695 458.888,412.528 453,409.5C 427.166,399.723 401.332,390.057 375.5,380.5C 373.52,378.549 371.187,377.049 368.5,376C 367.207,375.51 365.873,375.343 364.5,375.5C 360.808,375.676 358.808,374.009 358.5,370.5C 360.806,370.007 363.139,369.674 365.5,369.5C 370.731,369.556 375.731,368.889 380.5,367.5C 383.902,367.658 387.236,367.324 390.5,366.5C 393.167,366.5 395.833,366.5 398.5,366.5C 412.482,365.657 426.482,365.324 440.5,365.5 Z"/></g>
<g><path style="opacity:1" fill="#ff8a78" d="M 654.5,364.5 C 651.026,365.525 647.36,366.192 643.5,366.5C 646.845,364.783 650.511,364.116 654.5,364.5 Z"/></g>
<g><path style="opacity:1" fill="#ff2404" d="M 654.5,364.5 C 663.833,364.5 673.167,364.5 682.5,364.5C 687.269,365.889 692.269,366.556 697.5,366.5C 698.167,366.5 698.833,366.5 699.5,366.5C 705.979,367.598 712.646,368.265 719.5,368.5C 724.535,369.071 729.535,369.904 734.5,371C 735.537,372.851 734.87,374.017 732.5,374.5C 730.597,374.796 728.93,375.463 727.5,376.5C 724.053,377.083 721.053,378.416 718.5,380.5C 716.302,380.875 714.302,381.542 712.5,382.5C 703.271,385.462 694.271,388.796 685.5,392.5C 683.597,392.796 681.93,393.463 680.5,394.5C 674.319,395.885 668.652,398.219 663.5,401.5C 658.079,402.196 653.079,403.863 648.5,406.5C 644.851,407.267 641.518,408.6 638.5,410.5C 637.167,411.167 635.833,411.833 634.5,412.5C 632.326,412.75 630.659,413.75 629.5,415.5C 622.63,418.367 617.297,423.034 613.5,429.5C 611.967,431.634 611.3,434.134 611.5,437C 611.506,439.033 611.839,440.866 612.5,442.5C 614.319,450.47 616.986,458.137 620.5,465.5C 620.427,467.027 621.094,468.027 622.5,468.5C 625.767,474.035 628.767,479.702 631.5,485.5C 631.427,487.027 632.094,488.027 633.5,488.5C 637.418,495.335 641.085,502.335 644.5,509.5C 646.123,515.012 646.79,520.678 646.5,526.5C 644.046,530.789 640.712,534.289 636.5,537C 624.595,545.09 612.595,552.923 600.5,560.5C 598.973,560.427 597.973,561.094 597.5,562.5C 596.391,562.557 595.391,562.89 594.5,563.5C 593.5,563.5 592.5,563.5 591.5,563.5C 591.334,553.494 591.5,543.494 592,533.5C 592.995,532.934 593.828,532.267 594.5,531.5C 598.365,530.641 601.031,528.308 602.5,524.5C 604.191,511.982 603.191,499.649 599.5,487.5C 598.046,478.107 596.379,468.773 594.5,459.5C 593.451,450.921 591.784,442.588 589.5,434.5C 588.501,429.173 587.501,423.84 586.5,418.5C 586.13,413.578 585.13,408.911 583.5,404.5C 579.578,390.662 584.578,382.329 598.5,379.5C 602.915,379.139 606.915,377.806 610.5,375.5C 611.833,375.167 613.167,374.833 614.5,374.5C 617.152,374.59 619.485,373.924 621.5,372.5C 625.978,370.877 630.644,369.544 635.5,368.5C 638.152,368.59 640.485,367.924 642.5,366.5C 642.833,366.5 643.167,366.5 643.5,366.5C 647.36,366.192 651.026,365.525 654.5,364.5 Z"/></g>
<g><path style="opacity:1" fill="#ff8370" d="M 682.5,364.5 C 687.731,364.444 692.731,365.111 697.5,366.5C 692.269,366.556 687.269,365.889 682.5,364.5 Z"/></g>
<g><path style="opacity:1" fill="#ffa476" d="M 440.5,365.5 C 440.5,365.167 440.5,364.833 440.5,364.5C 444.163,364.952 447.83,365.452 451.5,366C 452.416,366.278 453.082,366.778 453.5,367.5C 449.147,366.941 444.814,366.275 440.5,365.5 Z"/></g>
<g><path style="opacity:1" fill="#ff8c7a" d="M 642.5,366.5 C 640.485,367.924 638.152,368.59 635.5,368.5C 637.515,367.076 639.848,366.41 642.5,366.5 Z"/></g>
<g><path style="opacity:1" fill="#ff917f" d="M 699.5,366.5 C 704.844,366.334 710.177,366.501 715.5,367C 717.058,367.21 718.391,367.71 719.5,368.5C 712.646,368.265 705.979,367.598 699.5,366.5 Z"/></g>
<g><path style="opacity:1" fill="#ff945f" d="M 380.5,367.5 C 375.731,368.889 370.731,369.556 365.5,369.5C 370.234,367.855 375.234,367.189 380.5,367.5 Z"/></g>
<g><path style="opacity:1" fill="#ff6e56" d="M 621.5,372.5 C 619.485,373.924 617.152,374.59 614.5,374.5C 616.515,373.076 618.848,372.41 621.5,372.5 Z"/></g>
<g><path style="opacity:1" fill="#ff8b52" d="M 476.5,373.5 C 479.746,374.054 482.746,375.054 485.5,376.5C 482.008,376.554 479.008,375.554 476.5,373.5 Z"/></g>
<g><path style="opacity:1" fill="#ff7e41" d="M 364.5,375.5 C 365.873,375.343 367.207,375.51 368.5,376C 371.187,377.049 373.52,378.549 375.5,380.5C 371.376,379.601 367.709,377.934 364.5,375.5 Z"/></g>
<g><path style="opacity:1" fill="#ffa596" d="M 732.5,374.5 C 731.365,376.213 729.698,376.88 727.5,376.5C 728.93,375.463 730.597,374.796 732.5,374.5 Z"/></g>
<g><path style="opacity:1" fill="#ffb593" d="M 487.5,376.5 C 491.358,376.77 494.691,378.103 497.5,380.5C 496.833,380.5 496.167,380.5 495.5,380.5C 492.746,379.359 490.079,378.025 487.5,376.5 Z"/></g>
<g><path style="opacity:1" fill="#ffa394" d="M 727.5,376.5 C 724.947,378.584 721.947,379.917 718.5,380.5C 721.053,378.416 724.053,377.083 727.5,376.5 Z"/></g>
<g><path style="opacity:1" fill="#ff674c" d="M 610.5,375.5 C 606.915,377.806 602.915,379.139 598.5,379.5C 602.085,377.194 606.085,375.861 610.5,375.5 Z"/></g>
<g><path style="opacity:1" fill="#ff5004" d="M 495.5,380.5 C 496.167,380.5 496.833,380.5 497.5,380.5C 503.489,381.311 507.822,384.311 510.5,389.5C 510.587,394.537 510.254,399.537 509.5,404.5C 509.5,404.833 509.5,405.167 509.5,405.5C 508.419,408.627 507.753,411.96 507.5,415.5C 506.51,419.772 505.844,424.106 505.5,428.5C 504.076,430.515 503.41,432.848 503.5,435.5C 503.5,436.833 503.5,438.167 503.5,439.5C 502.778,439.918 502.278,440.584 502,441.5C 501.452,445.17 500.952,448.837 500.5,452.5C 500.5,453.167 500.5,453.833 500.5,454.5C 498.87,458.911 497.87,463.578 497.5,468.5C 497.5,468.833 497.5,469.167 497.5,469.5C 496.419,472.627 495.753,475.96 495.5,479.5C 495.5,480.167 495.5,480.833 495.5,481.5C 494.076,483.515 493.41,485.848 493.5,488.5C 492.71,489.609 492.21,490.942 492,492.5C 491.5,455.168 491.333,417.835 491.5,380.5C 492.833,380.5 494.167,380.5 495.5,380.5 Z"/></g>
<g><path style="opacity:1" fill="#ffbcb0" d="M 712.5,382.5 C 705.728,385.935 698.728,389.101 691.5,392C 689.527,392.495 687.527,392.662 685.5,392.5C 694.271,388.796 703.271,385.462 712.5,382.5 Z"/></g>
<g><path style="opacity:1" fill="#ffc1a8" d="M 510.5,389.5 C 511.647,393.646 511.814,397.98 511,402.5C 510.722,403.416 510.222,404.082 509.5,404.5C 510.254,399.537 510.587,394.537 510.5,389.5 Z"/></g>
<g><path style="opacity:1" fill="#ffa091" d="M 805.5,392.5 C 806.906,392.973 807.573,393.973 807.5,395.5C 806.094,395.027 805.427,394.027 805.5,392.5 Z"/></g>
<g><path style="opacity:1" fill="#ffb8ac" d="M 680.5,394.5 C 675.274,397.604 669.607,399.937 663.5,401.5C 668.652,398.219 674.319,395.885 680.5,394.5 Z"/></g>
<g><path style="opacity:1" fill="#ffcbb1" d="M 280.5,405.5 C 280.38,408.578 279.38,411.245 277.5,413.5C 277.62,410.422 278.62,407.755 280.5,405.5 Z"/></g>
<g><path style="opacity:1" fill="#ffb3a7" d="M 648.5,406.5 C 645.691,408.897 642.358,410.23 638.5,410.5C 641.518,408.6 644.851,407.267 648.5,406.5 Z"/></g>
<g><path style="opacity:1" fill="#ffd2c8" d="M 583.5,404.5 C 585.13,408.911 586.13,413.578 586.5,418.5C 584.044,414.274 583.044,409.607 583.5,404.5 Z"/></g>
<g><path style="opacity:1" fill="#ffc2a8" d="M 509.5,405.5 C 509.664,408.187 509.497,410.854 509,413.5C 508.722,414.416 508.222,415.082 507.5,415.5C 507.753,411.96 508.419,408.627 509.5,405.5 Z"/></g>
<g><path style="opacity:1" fill="#ffc3b9" d="M 634.5,412.5 C 633.514,414.408 631.848,415.408 629.5,415.5C 630.659,413.75 632.326,412.75 634.5,412.5 Z"/></g>
<g><path style="opacity:1" fill="#ffa37d" d="M 505.5,428.5 C 505.59,431.152 504.924,433.485 503.5,435.5C 503.41,432.848 504.076,430.515 505.5,428.5 Z"/></g>
<g><path style="opacity:1" fill="#ff8a78" d="M 613.5,429.5 C 612.8,433.798 612.467,438.131 612.5,442.5C 611.839,440.866 611.506,439.033 611.5,437C 611.3,434.134 611.967,431.634 613.5,429.5 Z"/></g>
<g><path style="opacity:1" fill="#ffd3bd" d="M 479.5,428.5 C 480.222,428.918 480.722,429.584 481,430.5C 481.499,435.155 481.666,439.821 481.5,444.5C 481.167,444.5 480.833,444.5 480.5,444.5C 480.608,439.13 480.275,433.797 479.5,428.5 Z"/></g>
<g><path style="opacity:1" fill="#ffbaac" d="M 589.5,434.5 C 591.784,442.588 593.451,450.921 594.5,459.5C 591.449,451.578 589.782,443.245 589.5,434.5 Z"/></g>
<g><path style="opacity:1" fill="#ff8f57" d="M 480.5,444.5 C 480.833,444.5 481.167,444.5 481.5,444.5C 481.323,448.708 479.99,452.374 477.5,455.5C 478.703,451.89 479.703,448.223 480.5,444.5 Z"/></g>
<g><path style="opacity:1" fill="#ffb391" d="M 503.5,439.5 C 503.237,444.124 502.237,448.458 500.5,452.5C 500.952,448.837 501.452,445.17 502,441.5C 502.278,440.584 502.778,439.918 503.5,439.5 Z"/></g>
<g><path style="opacity:1" fill="#ffcdb6" d="M 500.5,454.5 C 500.956,459.607 499.956,464.274 497.5,468.5C 497.87,463.578 498.87,458.911 500.5,454.5 Z"/></g>
<g><path style="opacity:1" fill="#ff9180" d="M 620.5,465.5 C 621.906,465.973 622.573,466.973 622.5,468.5C 621.094,468.027 620.427,467.027 620.5,465.5 Z"/></g>
<g><path style="opacity:1" fill="#ffc8af" d="M 497.5,469.5 C 497.664,472.187 497.497,474.854 497,477.5C 496.722,478.416 496.222,479.082 495.5,479.5C 495.753,475.96 496.419,472.627 497.5,469.5 Z"/></g>
<g><path style="opacity:1" fill="#ff9d70" d="M 495.5,481.5 C 495.59,484.152 494.924,486.485 493.5,488.5C 493.41,485.848 494.076,483.515 495.5,481.5 Z"/></g>
<g><path style="opacity:1" fill="#ff7a64" d="M 631.5,485.5 C 632.906,485.973 633.573,486.973 633.5,488.5C 632.094,488.027 631.427,487.027 631.5,485.5 Z"/></g>
<g><path style="opacity:1" fill="#ffad9f" d="M 599.5,487.5 C 603.191,499.649 604.191,511.982 602.5,524.5C 602.677,512.06 601.677,499.727 599.5,487.5 Z"/></g>
<g><path style="opacity:1" fill="#ffb28d" d="M 491.5,505.5 C 491.093,511.161 490.76,516.828 490.5,522.5C 489.117,516.756 489.45,511.09 491.5,505.5 Z"/></g>
<g><path style="opacity:1" fill="#ffa172" d="M 449.5,508.5 C 447.463,513.956 446.463,519.623 446.5,525.5C 444.808,519.431 445.808,513.764 449.5,508.5 Z"/></g>
<g><path style="opacity:1" fill="#ff5f45" d="M 644.5,509.5 C 645.793,510.842 646.626,512.509 647,514.5C 647.812,518.689 647.645,522.689 646.5,526.5C 646.79,520.678 646.123,515.012 644.5,509.5 Z"/></g>
<g><path style="opacity:1" fill="#ffb696" d="M 496.5,530.5 C 499.152,530.41 501.485,531.076 503.5,532.5C 500.848,532.59 498.515,531.924 496.5,530.5 Z"/></g>
<g><path style="opacity:1" fill="#ff4b04" d="M 494.5,530.5 C 495.167,530.5 495.833,530.5 496.5,530.5C 498.515,531.924 500.848,532.59 503.5,532.5C 509.698,534.34 516.031,535.673 522.5,536.5C 522.5,536.833 522.5,537.167 522.5,537.5C 521.448,537.351 520.448,537.517 519.5,538C 520.175,551.5 520.842,565 521.5,578.5C 512.825,572.83 504.158,567.164 495.5,561.5C 494.952,559.468 493.619,558.468 491.5,558.5C 491.334,548.828 491.5,539.161 492,529.5C 492.671,530.252 493.504,530.586 494.5,530.5 Z"/></g>
<g><path style="opacity:1" fill="#ff9873" d="M 522.5,537.5 C 522.5,537.167 522.5,536.833 522.5,536.5C 525.152,536.41 527.485,537.076 529.5,538.5C 527.139,538.326 524.806,537.993 522.5,537.5 Z"/></g>
<g><path style="opacity:1" fill="#ff7350" d="M 572.5,536.5 C 567.549,538.773 562.216,539.773 556.5,539.5C 561.63,538.087 566.963,537.087 572.5,536.5 Z"/></g>
<g><path style="opacity:1" fill="#ffb59e" d="M 531.5,538.5 C 539.483,539.166 547.483,539.499 555.5,539.5C 554.432,540.434 553.099,540.768 551.5,540.5C 544.576,540.932 537.909,540.266 531.5,538.5 Z"/></g>
<g><path style="opacity:1" fill="#ff3302" d="M 594.5,531.5 C 593.828,532.267 592.995,532.934 592,533.5C 591.5,543.494 591.334,553.494 591.5,563.5C 592.5,563.5 593.5,563.5 594.5,563.5C 585.272,569.06 576.606,575.394 568.5,582.5C 565.911,583.419 563.911,585.086 562.5,587.5C 560.457,588.579 559.124,590.246 558.5,592.5C 556.613,593.768 555.613,595.601 555.5,598C 555.387,599.699 556.053,600.866 557.5,601.5C 559.557,606.61 562.391,611.277 566,615.5C 574.76,624.765 583.927,633.431 593.5,641.5C 592.17,647.463 591.504,653.796 591.5,660.5C 591.518,667.244 591.851,673.91 592.5,680.5C 581.803,676.481 571.137,672.481 560.5,668.5C 557.746,667.054 554.746,666.054 551.5,665.5C 549.974,663.87 547.974,663.037 545.5,663C 546.827,643.217 547.494,623.217 547.5,603C 547.497,582.928 547.164,562.928 546.5,543C 548.744,542.95 550.411,542.117 551.5,540.5C 553.099,540.768 554.432,540.434 555.5,539.5C 555.833,539.5 556.167,539.5 556.5,539.5C 562.216,539.773 567.549,538.773 572.5,536.5C 579.692,534.629 587.025,532.963 594.5,531.5 Z"/></g>
<g><path style="opacity:1" fill="#ff3f02" d="M 522.5,537.5 C 524.806,537.993 527.139,538.326 529.5,538.5C 530.167,538.5 530.833,538.5 531.5,538.5C 537.909,540.266 544.576,540.932 551.5,540.5C 550.411,542.117 548.744,542.95 546.5,543C 547.164,562.928 547.497,582.928 547.5,603C 547.494,623.217 546.827,643.217 545.5,663C 547.974,663.037 549.974,663.87 551.5,665.5C 548.362,664.319 545.362,664.319 542.5,665.5C 536.3,666.342 530.633,668.342 525.5,671.5C 524.167,671.5 522.833,671.5 521.5,671.5C 520.339,656.005 520.172,640.339 521,624.5C 521.791,623.255 522.291,621.922 522.5,620.5C 524.5,617.833 526.833,615.5 529.5,613.5C 531.587,612.415 532.92,610.749 533.5,608.5C 534.128,605.91 535.295,603.577 537,601.5C 537.667,599.167 537.667,596.833 537,594.5C 532.302,588.637 527.135,583.303 521.5,578.5C 520.842,565 520.175,551.5 519.5,538C 520.448,537.517 521.448,537.351 522.5,537.5 Z"/></g>
<g><path style="opacity:1" fill="#ffa97d" d="M 379.5,550.5 C 380.906,550.973 381.573,551.973 381.5,553.5C 380.094,553.027 379.427,552.027 379.5,550.5 Z"/></g>
<g><path style="opacity:1" fill="#ffa293" d="M 713.5,551.5 C 713.573,553.027 712.906,554.027 711.5,554.5C 711.427,552.973 712.094,551.973 713.5,551.5 Z"/></g>
<g><path style="opacity:1" fill="#ffab9c" d="M 600.5,560.5 C 600.027,561.906 599.027,562.573 597.5,562.5C 597.973,561.094 598.973,560.427 600.5,560.5 Z"/></g>
<g><path style="opacity:1" fill="#ffc3ba" d="M 710.5,567.5 C 711.871,569.936 712.871,572.603 713.5,575.5C 711.345,573.383 710.345,570.716 710.5,567.5 Z"/></g>
<g><path style="opacity:1" fill="#ffc9ae" d="M 380.5,574.5 C 380.834,577.491 379.834,579.824 377.5,581.5C 377.935,578.843 378.935,576.509 380.5,574.5 Z"/></g>
<g><path style="opacity:1" fill="#ffc7b8" d="M 568.5,582.5 C 567.089,584.914 565.089,586.581 562.5,587.5C 563.911,585.086 565.911,583.419 568.5,582.5 Z"/></g>
<g><path style="opacity:1" fill="#ffa596" d="M 718.5,587.5 C 721.14,592.085 722.806,597.085 723.5,602.5C 721.256,597.767 719.589,592.767 718.5,587.5 Z"/></g>
<g><path style="opacity:1" fill="#ffb894" d="M 373.5,591.5 C 373.277,595.162 372.277,598.495 370.5,601.5C 370.723,597.838 371.723,594.505 373.5,591.5 Z"/></g>
<g><path style="opacity:1" fill="#ffc8b8" d="M 558.5,592.5 C 557.701,595.43 557.368,598.43 557.5,601.5C 556.053,600.866 555.387,599.699 555.5,598C 555.613,595.601 556.613,593.768 558.5,592.5 Z"/></g>
<g><path style="opacity:1" fill="#ff7c4f" d="M 533.5,608.5 C 532.92,610.749 531.587,612.415 529.5,613.5C 530.08,611.251 531.413,609.585 533.5,608.5 Z"/></g>
<g><path style="opacity:1" fill="#ffcab0" d="M 370.5,601.5 C 369.277,611.841 369.277,622.174 370.5,632.5C 366.501,622.175 366.501,611.841 370.5,601.5 Z"/></g>
<g><path style="opacity:1" fill="#ffc4ba" d="M 724.5,624.5 C 724.876,629.273 723.876,633.607 721.5,637.5C 722.373,633.017 723.373,628.683 724.5,624.5 Z"/></g>
<g><path style="opacity:1" fill="#ff4e04" d="M 522.5,620.5 C 522.291,621.922 521.791,623.255 521,624.5C 520.172,640.339 520.339,656.005 521.5,671.5C 519.167,672.833 516.833,674.167 514.5,675.5C 512.597,675.796 510.93,676.463 509.5,677.5C 505.407,678.382 501.74,680.049 498.5,682.5C 497.167,682.833 495.833,683.167 494.5,683.5C 493.5,683.5 492.5,683.5 491.5,683.5C 491.333,671.829 491.5,660.162 492,648.5C 492.717,647.956 493.217,647.289 493.5,646.5C 503.141,637.862 512.808,629.195 522.5,620.5 Z"/></g>
<g><path style="opacity:1" fill="#ffc5ba" d="M 614.5,655.5 C 616.989,655.241 618.656,656.241 619.5,658.5C 617.566,657.89 615.899,656.89 614.5,655.5 Z"/></g>
<g><path style="opacity:1" fill="#ff8950" d="M 470.5,660.5 C 469.514,662.408 467.848,663.408 465.5,663.5C 466.659,661.75 468.326,660.75 470.5,660.5 Z"/></g>
<g><path style="opacity:1" fill="#fffdfd" d="M 551.5,665.5 C 554.008,667.554 557.008,668.554 560.5,668.5C 571.137,672.481 581.803,676.481 592.5,680.5C 611.521,691.011 630.854,701.011 650.5,710.5C 650.973,711.906 651.973,712.573 653.5,712.5C 654.29,713.401 655.29,714.068 656.5,714.5C 657.265,717.096 657.599,719.763 657.5,722.5C 655.706,724.797 653.706,726.963 651.5,729C 631.693,743.649 612.36,758.816 593.5,774.5C 588.064,778.09 582.73,781.923 577.5,786C 573.376,789.055 569.709,792.555 566.5,796.5C 562.106,800.229 557.44,803.562 552.5,806.5C 549.904,807.265 547.237,807.599 544.5,807.5C 541.594,807.043 538.928,806.043 536.5,804.5C 532.153,800.155 527.486,796.155 522.5,792.5C 518.413,788.078 513.746,784.411 508.5,781.5C 504.102,776.771 499.102,772.771 493.5,769.5C 476.417,755.778 459.083,742.278 441.5,729C 438.979,726.78 436.812,724.28 435,721.5C 433.824,717.74 434.99,714.907 438.5,713C 457.168,703.269 475.835,693.436 494.5,683.5C 495.833,683.167 497.167,682.833 498.5,682.5C 502.836,682.163 506.503,680.496 509.5,677.5C 510.93,676.463 512.597,675.796 514.5,675.5C 518.787,675.524 522.453,674.19 525.5,671.5C 531.392,669.871 537.059,667.871 542.5,665.5C 545.362,664.319 548.362,664.319 551.5,665.5 Z"/></g>
<g><path style="opacity:1" fill="#ffbead" d="M 551.5,665.5 C 554.746,666.054 557.746,667.054 560.5,668.5C 557.008,668.554 554.008,667.554 551.5,665.5 Z"/></g>
<g><path style="opacity:1" fill="#ff9a8a" d="M 637.5,667.5 C 639.027,667.427 640.027,668.094 640.5,669.5C 638.973,669.573 637.973,668.906 637.5,667.5 Z"/></g>
<g><path style="opacity:1" fill="#ffaf94" d="M 542.5,665.5 C 537.059,667.871 531.392,669.871 525.5,671.5C 530.633,668.342 536.3,666.342 542.5,665.5 Z"/></g>
<g><path style="opacity:1" fill="#ffa171" d="M 450.5,670.5 C 448.967,672.245 446.967,673.245 444.5,673.5C 446.033,671.755 448.033,670.755 450.5,670.5 Z"/></g>
<g><path style="opacity:1" fill="#ffd4c3" d="M 521.5,671.5 C 522.833,671.5 524.167,671.5 525.5,671.5C 522.453,674.19 518.787,675.524 514.5,675.5C 516.833,674.167 519.167,672.833 521.5,671.5 Z"/></g>
<g><path style="opacity:1" fill="#ff755e" d="M 687.5,676.5 C 684.691,678.897 681.358,680.23 677.5,680.5C 680.518,678.6 683.851,677.267 687.5,676.5 Z"/></g>
<g><path style="opacity:1" fill="#ffc7ac" d="M 410.5,678.5 C 415.463,679.254 420.463,679.587 425.5,679.5C 421.354,680.647 417.02,680.814 412.5,680C 411.584,679.722 410.918,679.222 410.5,678.5 Z"/></g>
<g><path style="opacity:1" fill="#ffd4c1" d="M 509.5,677.5 C 506.503,680.496 502.836,682.163 498.5,682.5C 501.74,680.049 505.407,678.382 509.5,677.5 Z"/></g>
<g><path style="opacity:1" fill="#ff7d69" d="M 650.5,710.5 C 652.027,710.427 653.027,711.094 653.5,712.5C 651.973,712.573 650.973,711.906 650.5,710.5 Z"/></g>
<g><path style="opacity:1" fill="#ffc3b9" d="M 656.5,714.5 C 658.026,715.492 658.693,716.992 658.5,719C 658.486,720.385 658.152,721.551 657.5,722.5C 657.599,719.763 657.265,717.096 656.5,714.5 Z"/></g>
<g><path style="opacity:0.992" fill="#ff4e00" d="M 493.5,769.5 C 499.102,772.771 504.102,776.771 508.5,781.5C 507.761,781.369 507.094,781.536 506.5,782C 507.664,839.763 507.831,897.596 507,955.5C 506.667,956.167 506.333,956.833 506,957.5C 504.989,956.663 503.822,956.33 502.5,956.5C 496.976,953.908 491.976,950.575 487.5,946.5C 488.833,946.5 490.167,946.5 491.5,946.5C 490.837,887.157 491.504,828.157 493.5,769.5 Z"/></g>
<g><path style="opacity:0.993" fill="#ff4700" d="M 508.5,781.5 C 513.746,784.411 518.413,788.078 522.5,792.5C 520.504,849.824 519.837,907.49 520.5,965.5C 517.67,965.306 515.004,964.639 512.5,963.5C 508.851,961.671 505.518,959.337 502.5,956.5C 503.822,956.33 504.989,956.663 506,957.5C 506.333,956.833 506.667,956.167 507,955.5C 507.831,897.596 507.664,839.763 506.5,782C 507.094,781.536 507.761,781.369 508.5,781.5 Z"/></g>
<g><path style="opacity:0.994" fill="#ff2d00" d="M 593.5,774.5 C 593.217,775.289 592.717,775.956 592,776.5C 591.667,836.167 591.333,895.833 591,955.5C 590.667,955.167 590.333,954.833 590,954.5C 589.517,955.448 589.351,956.448 589.5,957.5C 581.351,964.414 572.351,970.08 562.5,974.5C 562.869,972.559 563.536,970.725 564.5,969C 563.336,912.571 563.169,856.071 564,799.5C 565.045,798.627 565.878,797.627 566.5,796.5C 569.709,792.555 573.376,789.055 577.5,786C 582.73,781.923 588.064,778.09 593.5,774.5 Z"/></g>
<g><path style="opacity:0.992" fill="#ff4100" d="M 522.5,792.5 C 527.486,796.155 532.153,800.155 536.5,804.5C 534.504,860.824 533.837,917.49 534.5,974.5C 533.5,974.5 532.5,974.5 531.5,974.5C 524.668,971.588 518.334,967.921 512.5,963.5C 515.004,964.639 517.67,965.306 520.5,965.5C 519.837,907.49 520.504,849.824 522.5,792.5 Z"/></g>
<g><path style="opacity:0.994" fill="#ff3500" d="M 566.5,796.5 C 565.878,797.627 565.045,798.627 564,799.5C 563.169,856.071 563.336,912.571 564.5,969C 563.536,970.725 562.869,972.559 562.5,974.5C 557.559,976.96 552.225,978.293 546.5,978.5C 547.163,921.821 547.829,865.154 548.5,808.5C 550.38,808.771 551.713,808.104 552.5,806.5C 557.44,803.562 562.106,800.229 566.5,796.5 Z"/></g>
<g><path style="opacity:0.993" fill="#ff3b00" d="M 536.5,804.5 C 538.928,806.043 541.594,807.043 544.5,807.5C 545.568,808.434 546.901,808.768 548.5,808.5C 547.829,865.154 547.163,921.821 546.5,978.5C 541.112,978.238 536.112,976.905 531.5,974.5C 532.5,974.5 533.5,974.5 534.5,974.5C 533.837,917.49 534.504,860.824 536.5,804.5 Z"/></g>
<g><path style="opacity:1" fill="#ff825d" d="M 552.5,806.5 C 551.713,808.104 550.38,808.771 548.5,808.5C 546.901,808.768 545.568,808.434 544.5,807.5C 547.237,807.599 549.904,807.265 552.5,806.5 Z"/></g>
<g><path style="opacity:0.979" fill="#b7b7b7" d="M 1199.5,960.5 C 1199.5,970.5 1199.5,980.5 1199.5,990.5C 1188.64,1033.17 1161.14,1056.17 1117,1059.5C 1065.75,1054.75 1037.58,1026.75 1032.5,975.5C 1034.79,938.386 1052.79,912.219 1086.5,897C 1127.71,884.403 1161.21,895.236 1187,929.5C 1192.89,939.255 1197.05,949.588 1199.5,960.5 Z"/></g>
</svg>
