<svg id="Layer_1" data-name="Layer 1" xmlns="http://www.w3.org/2000/svg" xmlns:xlink="http://www.w3.org/1999/xlink" width="120" height="120.47" viewBox="0 0 120 120.47"><defs><clipPath id="clip-path" transform="translate(-326.33 -301.72)"><circle cx="386.33" cy="361.72" r="52" style="fill:none"/></clipPath><linearGradient id="linear-gradient" x1="2174.82" y1="3707.48" x2="2183.39" y2="3707.48" gradientTransform="translate(-1810.5 -3363.75)" gradientUnits="userSpaceOnUse"><stop offset="0.01" stop-color="#6176b9"/><stop offset="0.69" stop-color="#394a9f"/></linearGradient><linearGradient id="linear-gradient-2" x1="2201.77" y1="3704.87" x2="2209.58" y2="3704.87" xlink:href="#linear-gradient"/></defs><title>DuckDuckGo logo icon logo - Brandlogos.net</title><circle cx="60" cy="60" r="57.5" style="fill:#de5833;stroke:#de5833;stroke-width:5px"/><g style="clip-path:url(#clip-path)"><path d="M397.46,415.28c-2.51-4.88-4.91-9.37-6.4-12.34-4-7.93-7.94-19.11-6.13-26.32.33-1.31-3.73-48.51-6.6-50A59.64,59.64,0,0,0,364.62,322c-2.5-.4-3.07.3-4.12.46,1,.1,5.7,2.42,6.61,2.55-.91.62-3.6,0-5.32.74a3.39,3.39,0,0,0-1.5,2.58c4.9-.5,12.56,0,17.1,2-3.61.41-9.09.87-11.45,2.11-6.84,3.6-9.86,12-8.06,22.13s9.72,46.85,12.25,59.13,31.51,9.7,27.32,1.53Z" transform="translate(-326.33 -301.72)" style="fill:#d5d7d8"/><path d="M401.1,416.47c-3-6-6.08-11.68-7.86-15.22-4-7.94-7.93-19.11-6.13-26.32.34-1.31.34-6.67,1.43-7.38,8.41-5.5,7.81-.19,11.19-2.65a9.3,9.3,0,0,0,3.74-4.9c2.16-7.58-3-20.77-8.78-26.54a15.35,15.35,0,0,0-8-3.68,17.79,17.79,0,0,0-6.13-4.89A28.86,28.86,0,0,0,362.27,322c1,.1,3.26,2.14,4.17,2.27-1.38.94-5.05.82-5,2.9a30,30,0,0,1,14.84,2.3,27.3,27.3,0,0,0-9.31,2.54c-6.86,3.6-8.66,10.81-6.86,20.91s9.74,46.88,12.26,59.13,32.5,11.8,28.77,4.41Z" transform="translate(-326.33 -301.72)" style="fill:#fff"/></g><circle cx="45.47" cy="51.72" r="3.79" style="fill:#2d4f8e"/><circle cx="47.16" cy="50.46" r="0.98" style="fill:#fff"/><circle cx="70.79" cy="49.47" r="3.25" style="fill:#2d4f8e"/><circle cx="72.24" cy="48.39" r="0.84" style="fill:#fff"/><path d="M372.89,342.47a6.32,6.32,0,0,0-5.63.45c-2.77,1.74-2.67,3.52-2.67,3.52s-1.47-3.28,2.45-4.89S372.89,342.47,372.89,342.47Z" transform="translate(-326.33 -301.72)" style="fill:url(#linear-gradient)"/><path d="M399.08,342.21a9,9,0,0,0-3.65-1.15c-3.27,0-4.16,1.48-4.16,1.48s.55-3.44,4.73-2.75A4.2,4.2,0,0,1,399.08,342.21Z" transform="translate(-326.33 -301.72)" style="fill:url(#linear-gradient-2)"/><path d="M383.4,368c.38-2.3,6.3-6.63,10.5-6.9s5.5-.2,9-1,12.54-3.08,15-4.24,13.1.57,5.63,4.74c-3.23,1.81-11.94,5.13-18.17,7s-10-1.78-12.06,1.28c-1.64,2.43-.33,5.76,7.1,6.45,10,.93,19.66-4.52,20.72-1.62s-8.62,6.5-14.52,6.62-17.78-3.9-19.56-5.14S382.91,371.06,383.4,368Z" transform="translate(-326.33 -301.72)" style="fill:#fdd20a"/><path d="M387.94,398.35s-14.1-7.53-14.33-4.48,0,15.51,1.64,16.45,13.4-6.1,13.4-6.1l-.7-5.88Zm5.4-.48S403,390.58,405.1,391s2.58,15.51.7,16.23-12.9-3.81-12.9-3.81l.45-5.6Z" transform="translate(-326.33 -301.72)" style="fill:#65bc46"/><path d="M384.53,399.14c0,4.93-.71,7.05,1.4,7.52s6.11,0,7.53-.94.23-7.28-.24-8.46-8.7-.24-8.7,1.88Z" transform="translate(-326.33 -301.72)" style="fill:#43a244"/><path d="M385.43,398c0,4.93-.71,7,1.4,7.51s6.1,0,7.52-.94.24-7.28-.23-8.46-8.7-.23-8.7,1.88Z" transform="translate(-326.33 -301.72)" style="fill:#65bc46"/><circle cx="59.97" cy="60.03" r="53.1" style="fill:none;stroke:#fff;stroke-width:3.8499999046325684px"/></svg>